<svg xmlns="http://www.w3.org/2000/svg" xmlns:xlink="http://www.w3.org/1999/xlink" viewBox="0 0 8.23 7.35"><defs><style>.cls-1{fill:url(#linear-gradient);}.cls-2{font-size:4px;fill:#fff;font-family:MyriadPro-Regular, Myriad Pro;}</style><linearGradient id="linear-gradient" x1="1" y1="0.29" x2="6.91" y2="4.91" gradientUnits="userSpaceOnUse"><stop offset="0.64" stop-color="#ec6d80"/><stop offset="1" stop-color="#9d637f"/></linearGradient></defs><title>favicon</title><g id="Layer_2" data-name="Layer 2"><g id="Layer_1-2" data-name="Layer 1"><path class="cls-1" d="M8.23,2.2v.4a.31.31,0,0,0,0,.08A2.2,2.2,0,0,1,7.59,4c-1,1.08-2.11,2.14-3.16,3.21a.38.38,0,0,1-.59,0c-1-1-2.09-2.06-3.13-3.11A2.31,2.31,0,0,1,.05,1.94,2.28,2.28,0,0,1,.83.59,2.33,2.33,0,0,1,2.45,0,2.37,2.37,0,0,1,3.89.52l.23.2L4.21.63A2.33,2.33,0,0,1,5.56,0,2.27,2.27,0,0,1,7.12.38a2.35,2.35,0,0,1,1,1.36C8.17,1.89,8.2,2.05,8.23,2.2Z"/><text class="cls-2" transform="translate(0.91 4.39)">&lt;/&gt;</text></g></g></svg>