<?xml version="1.0" encoding="utf-8"?>
<!-- Generator: Adobe Illustrator 23.1.0, SVG Export Plug-In . SVG Version: 6.00 Build 0)  -->
<svg version="1.1" id="Layer_1" xmlns="http://www.w3.org/2000/svg" xmlns:xlink="http://www.w3.org/1999/xlink" x="0px" y="0px"
	 viewBox="0 0 93.6 83.7" style="enable-background:new 0 0 93.6 83.7;" xml:space="preserve">
<style type="text/css">
	.st0{fill:#FFFFFF;}
</style>
<title>logoTransparent</title>
<g>
	<g id="Layer_1-2">
		<path class="st0" d="M92.6,19.8c-1.8-6.4-5.9-12-11.5-15.5c-10.4-6.6-23.9-5.5-33,2.8l-1.1,1c-0.9-0.8-1.7-1.5-2.6-2.2
			C39.7,2.1,33.9,0,27.9,0C21.1-0.3,14.5,2.1,9.4,6.7C4.8,10.6,1.6,16.1,0.5,22c-1.9,9,1,18.3,7.6,24.6C19.9,58.5,31.8,70.2,43.7,82
			c2.1,2.1,4.7,2.2,6.7,0.1c12-12.2,24-24.3,36-36.5c4-4.1,6.4-9.4,7-15.1c0-0.3,0.1-0.6,0.2-1V25C93.3,23.2,93,21.4,92.6,19.8z
			 M38,50.4c-0.4,0-0.8-0.1-1.2-0.2l0,0l-20.7-8.8l0,0c-1.5-0.4-2.4-2-2-3.6c0.3-1,1.1-1.8,2.1-2l20-8.5c0.5-0.3,1.1-0.5,1.6-0.5
			c1.6,0,2.9,1.3,2.9,2.9c0,1-0.6,2-1.4,2.5l0,0c-0.3,0.2-0.6,0.3-0.8,0.3l-15.4,6l15.8,6.2l0,0c1.6,0.3,2.6,1.9,2.2,3.5
			C40.7,49.5,39.5,50.5,38,50.4z M52.7,25.9l-6.3,25.9c-0.2,0.8-0.4,1.5-0.5,2c-0.1,0.4-0.4,0.8-0.7,1.2c-0.4,0.3-0.9,0.4-1.4,0.4
			c-1.5,0-2.3-0.7-2.3-2c0.1-0.9,0.2-1.7,0.5-2.6l6.3-25.9c0.2-1,0.5-1.9,0.9-2.8c0.4-0.6,1.1-0.8,1.8-0.8c0.6,0,1.2,0.2,1.7,0.5
			c0.4,0.4,0.6,0.9,0.6,1.5C53.1,24.2,53,25.1,52.7,25.9z M78.5,41.4L78.5,41.4l-20.7,8.8l0,0c-1.5,0.6-3.2,0-3.8-1.5s0-3.2,1.5-3.8
			c0.1-0.1,0.3-0.1,0.4-0.2l0,0l15.8-6.2l-15.5-6c-0.3-0.1-0.6-0.2-0.8-0.3l0,0c-1.4-0.8-1.9-2.5-1.2-3.9s2.5-1.9,3.9-1.2
			c0.1,0.1,0.2,0.1,0.3,0.2l20,8.5c1.5,0.4,2.5,2,2.1,3.5C80.3,40.3,79.5,41.1,78.5,41.4L78.5,41.4z"/>
	</g>
</g>
</svg>
