<svg xmlns="http://www.w3.org/2000/svg" viewBox="0 0 93.61 83.69"><defs><style>.cls-1{fill:#fff;}.cls-2{fill:#ec6d80;stroke:#ec6d80;stroke-miterlimit:10;}</style></defs><title>logowhite</title><g id="Layer_2" data-name="Layer 2"><g id="Layer_1-2" data-name="Layer 1"><path class="cls-1" d="M93.61,25v4.57c-.06.32-.15.65-.19,1a25.61,25.61,0,0,1-7,15.13Q68.48,64,50.39,82.18c-2,2.06-4.59,2-6.7-.1C31.82,70.3,19.88,58.58,8.12,46.69A26.48,26.48,0,0,1,.53,22.08,26.23,26.23,0,0,1,9.4,6.74,26.53,26.53,0,0,1,27.83,0,26.48,26.48,0,0,1,44.26,5.94c.88.69,1.69,1.46,2.58,2.23l1.1-1A27.2,27.2,0,0,1,81,4.31,26.65,26.65,0,0,1,92.53,19.84C93,21.53,93.26,23.28,93.61,25Z"/><path class="cls-2" d="M38.72,44.79l-1.91,5.48L16.12,41.49V35.92L36.6,27.23l2.72,5.06L23,38.59Z"/><path class="cls-2" d="M52.69,26,46.4,51.89c-.21.85-.39,1.52-.55,2a2.56,2.56,0,0,1-.72,1.16,2.13,2.13,0,0,1-1.4.41c-1.53,0-2.3-.66-2.3-2a17.74,17.74,0,0,1,.45-2.58L48.15,25a11.74,11.74,0,0,1,.94-2.83,1.89,1.89,0,0,1,1.76-.76,2.45,2.45,0,0,1,1.71.54,1.89,1.89,0,0,1,.6,1.48A12.66,12.66,0,0,1,52.69,26Z"/><circle class="cls-2" cx="16.92" cy="38.69" r="2.91"/><circle class="cls-2" cx="37.86" cy="29.79" r="2.91"/><circle class="cls-2" cx="37.98" cy="47.61" r="2.91"/><path class="cls-2" d="M71.57,38.59l-16.35-6.3,2.72-5.07,20.48,8.69v5.58L57.73,50.27l-1.91-5.48Z"/><circle class="cls-2" cx="77.62" cy="38.69" r="2.91"/><circle class="cls-2" cx="56.68" cy="29.78" r="2.91"/><circle class="cls-2" cx="56.56" cy="47.61" r="2.91"/></g></g></svg>